<?xml version="1.0" encoding="utf-8"?>
<!-- Generator: Adobe Illustrator 22.1.0, SVG Export Plug-In . SVG Version: 6.00 Build 0)  -->
<svg version="1.1" id="Capa_1" xmlns="http://www.w3.org/2000/svg" xmlns:xlink="http://www.w3.org/1999/xlink" x="0px" y="0px"
	 viewBox="0 0 60 60" style="enable-background:new 0 0 60 60;" xml:space="preserve">
<style type="text/css">
	.st0{fill:#111111;}
</style>
<g>
	<path class="st0" d="M30,26c3.9,0,7-3.1,7-7s-3.1-7-7-7s-7,3.1-7,7S26.1,26,30,26z M30,14c2.8,0,5,2.2,5,5s-2.2,5-5,5s-5-2.2-5-5
		S27.2,14,30,14z"/>
	<path class="st0" d="M29.8,54.8l15.3-22.2c5.8-7.7,4.9-20.3-1.8-27C39.8,2,34.9,0,29.8,0s-9.9,2-13.6,5.6c-6.7,6.7-7.5,19.3-1.8,27
		L29.8,54.8z M17.7,7c3.2-3.2,7.6-5,12.1-5S38.7,3.8,42,7c6,6,6.8,17.4,1.6,24.4L29.8,51.2L16.1,31.4C10.9,24.5,11.6,13.1,17.7,7z"
		/>
	<path class="st0" d="M42.1,43c-0.5-0.1-1,0.3-1.1,0.9s0.3,1,0.9,1.1C52.4,46.2,58,49.6,58,51.5c0,2.7-10.7,6.5-28,6.5
		S2,54.2,2,51.5c0-1.9,5.6-5.3,16.1-6.5c0.5-0.1,0.9-0.6,0.9-1.1c-0.1-0.5-0.6-0.9-1.1-0.9C7.4,44.2,0,47.7,0,51.5
		C0,55.7,10.3,60,30,60s30-4.3,30-8.5C60,47.7,52.6,44.2,42.1,43z"/>
</g>
</svg>
