<?xml version="1.0" encoding="utf-8"?>
<!-- Generator: Adobe Illustrator 22.1.0, SVG Export Plug-In . SVG Version: 6.00 Build 0)  -->
<svg version="1.1" id="Layer_1" xmlns="http://www.w3.org/2000/svg" xmlns:xlink="http://www.w3.org/1999/xlink" x="0px" y="0px"
	 viewBox="0 0 512 512" style="enable-background:new 0 0 512 512;" xml:space="preserve">
<style type="text/css">
	.st0{fill:#111111;}
</style>
<path class="st0" d="M79.5,252c-5.6,8.1-8.6,17.8-8.5,27.7c0,9.7,2.6,19.1,7.5,27.5c9.5,17.5,28.3,27.9,48.2,26.8
	c-0.1,1.3-0.2,2.6-0.2,4c0,4.7,0.7,9.4,2.1,13.8l-59.4,76.4c-4.5,5.8-4.7,13.8-0.7,19.9c4.1,6.1,11.5,8.9,18.6,7l52.2-14
	c4.6-1.2,9.3,1.5,10.5,6.1l14,52.2c1.9,7.1,8.1,12.1,15.4,12.6h1.2c6.9,0,13.2-4.2,15.8-10.6l39-95.8c12.5,5,26.4,5.3,39.2,0.8
	l38.7,95c2.6,6.5,8.9,10.7,15.8,10.6h1.1c7.4-0.4,13.7-5.5,15.5-12.6l14-52.3c1.2-4.5,5.9-7.2,10.4-6l52.2,14
	c7.1,1.9,14.6-0.9,18.7-7c4.1-6.1,3.8-14.1-0.7-19.9L382.3,354c1.9-5.1,2.9-10.6,2.9-16c0-1.3-0.1-2.7-0.2-4
	c19.9,1.1,38.6-9.3,48.2-26.8c4.9-8.3,7.4-17.8,7.5-27.5c0.1-9.9-2.9-19.6-8.5-27.7c17.5-9.3,28.4-27.4,28.4-47.2
	s-10.9-38-28.4-47.2c10.9-16.7,11.3-38.1,1-55.1C423.6,85,404.8,74.6,385,75.6c1.1-19.9-9.3-38.6-26.8-48.2
	c-17.1-10.1-38.4-9.7-55.2,1C293.8,10.9,275.6,0,255.8,0c-19.8,0-38,10.9-47.2,28.5c-16.7-10.7-38-11.1-55.1-1
	C136,37,125.5,55.7,126.7,75.6c-19.9-1.1-38.6,9.3-48.2,26.8c-10.3,17.1-9.9,38.5,1,55.1C61.9,166.8,51,185,51,204.8
	C51,224.6,61.9,242.8,79.5,252L79.5,252z M180.3,494.9l-14-52.2c-3.7-13.7-17.7-21.8-31.4-18.2l-52.2,14l54.7-70.4
	c4.4,5.6,9.8,10.4,15.9,14c17,10.3,38.4,9.9,55.1-1c2.8,6,6.8,11.3,11.8,15.6L180.3,494.9z M426.5,438.6l-52.3-14
	c-6.6-1.8-13.5-0.8-19.4,2.6c-5.9,3.4-10.2,9-11.9,15.6l-14,52.2l-39.4-96.6c5.8-4.5,10.5-10.4,13.7-17.1
	c16.7,10.9,38.1,11.3,55.2,1c5.6-3.2,10.6-7.4,14.8-12.3l53.6,68.7H426.5z M96.8,170.7c3.8-0.1,7.1-2.7,8.1-6.4
	c1-3.7-0.6-7.6-3.9-9.5c-13.6-8-17.1-27.7-7.8-43.8c5.9-10.9,17.1-17.9,29.5-18.5c4.3-0.1,8.6,1,12.3,3.2c3.3,1.9,7.6,1.4,10.3-1.3
	c2.7-2.7,3.3-6.9,1.4-10.3c-7.8-13.8-1-32.6,15.2-41.9c5.8-3.4,12.3-5.1,18.9-5.2c10-0.4,19.5,4.6,24.9,13c2,3.3,5.8,4.8,9.5,3.9
	s6.3-4.3,6.3-8.1c1.8-17.2,16.9-29.9,34.2-28.7c17.2-1.1,32.3,11.6,34,28.7c0.1,3.8,2.6,7.1,6.3,8.1c3.7,1,7.6-0.6,9.5-3.9
	c5.4-8.4,14.9-13.4,24.9-13c6.7,0,13.2,1.8,18.9,5.2c16.2,9.4,23,28.2,15.2,41.9c-1.9,3.4-1.3,7.6,1.4,10.3c2.7,2.7,7,3.2,10.3,1.3
	c3.8-2.2,8-3.3,12.3-3.2c12.4,0.5,23.6,7.5,29.5,18.4c9.3,16.2,5.8,35.9-7.8,43.9c-3.3,1.9-4.9,5.8-3.9,9.5c1,3.7,4.3,6.3,8.1,6.4
	c17.2,1.8,29.9,16.9,28.7,34.2c1.1,17.2-11.6,32.3-28.7,34c-3.8,0-7.1,2.6-8.1,6.3c-1,3.7,0.6,7.6,3.9,9.5
	c8.4,5.4,13.4,14.9,13,24.9c0,6.7-1.8,13.2-5.2,18.9c-9.3,16.2-28.2,23-41.9,15.2c-3.4-1.9-7.6-1.3-10.3,1.4
	c-2.7,2.7-3.2,7-1.3,10.3c2.1,3.8,3.3,8,3.2,12.3c0,4.7-1.2,9.3-3.3,13.6c-3.4,6.7-8.6,12.2-15.1,15.9c-16.2,9.3-35.9,5.8-43.9-7.8
	c-1.9-3.3-5.8-4.9-9.5-3.9c-3.7,1-6.3,4.2-6.4,8c-0.5,10.1-6.3,19.2-15.2,23.9c-12.4,6.7-27.4,6.3-39.4-1
	c-8.1-4.8-13.2-13.4-13.6-22.9c-0.1-3.8-2.6-7.2-6.3-8.1c-3.7-1-7.6,0.6-9.5,3.9c-8,13.6-27.6,17.1-43.8,7.8
	c-7-4-12.6-10.1-15.9-17.5c-1.7-3.8-2.5-7.8-2.6-11.9c-0.1-4.3,1-8.6,3.2-12.3c1.9-3.3,1.4-7.6-1.3-10.3c-2.7-2.7-6.9-3.3-10.3-1.4
	c-13.8,7.8-32.6,1-41.9-15.2c-3.4-5.8-5.1-12.3-5.2-18.9c-0.4-10,4.6-19.5,13-24.9c3.3-2,4.9-5.9,3.9-9.5c-1-3.7-4.3-6.3-8.1-6.3
	c-17.2-1.8-29.9-17-28.7-34.2C66.9,187.5,79.6,172.5,96.8,170.7z"/>
<path class="st0" d="M255.8,341.3c75.4,0,136.5-61.1,136.5-136.5S331.2,68.3,255.8,68.3s-136.5,61.1-136.5,136.5
	C119.4,280.2,180.4,341.2,255.8,341.3z M255.8,85.3c66,0,119.5,53.5,119.5,119.5s-53.5,119.5-119.5,119.5s-119.5-53.5-119.5-119.5
	C136.4,138.9,189.9,85.4,255.8,85.3z"/>
<path class="st0" d="M247.3,298.7c0,4.7,3.8,8.5,8.5,8.5c56.5-0.1,102.3-45.9,102.4-102.4c0-4.7-3.8-8.5-8.5-8.5
	c-4.7,0-8.5,3.8-8.5,8.5c-0.1,47.1-38.2,85.3-85.3,85.3C251.1,290.1,247.3,294,247.3,298.7z"/>
<path class="st0" d="M255.8,119.5c4.7,0,8.5-3.8,8.5-8.5c0-4.7-3.8-8.5-8.5-8.5c-56.5,0.1-102.3,45.9-102.4,102.4
	c0,4.7,3.8,8.5,8.5,8.5s8.5-3.8,8.5-8.5C170.5,157.7,208.7,119.5,255.8,119.5z"/>
<path class="st0" d="M264.3,145.1c0-0.3-0.1-0.6-0.2-1c-0.1-1.2-0.5-2.3-1.1-3.3c-0.1-0.3-0.3-0.6-0.4-0.9c-0.1-0.2-0.3-0.2-0.4-0.4
	c-0.4-0.4-0.8-0.8-1.3-1.2c-1.3-1-2.9-1.5-4.5-1.7c-0.2,0-0.4-0.1-0.6-0.1c-0.3,0-0.6,0.1-0.9,0.2c-0.6,0.1-1.2,0.2-1.7,0.3
	c-0.5,0.2-1.1,0.4-1.6,0.8c-0.3,0.1-0.6,0.3-0.9,0.4l-34.1,25.6c-2.4,1.8-3.7,4.8-3.4,7.8c0.4,3,2.3,5.6,5.1,6.8
	c2.8,1.2,6,0.8,8.5-1l20.4-15.4V256h-17.1c-4.7,0-8.5,3.8-8.5,8.5c0,4.7,3.8,8.5,8.5,8.5h51.2c4.7,0,8.5-3.8,8.5-8.5
	c0-4.7-3.8-8.5-8.5-8.5h-17.1V145.1z"/>
</svg>
