<?xml version="1.0" encoding="utf-8"?>
<!-- Generator: Adobe Illustrator 22.1.0, SVG Export Plug-In . SVG Version: 6.00 Build 0)  -->
<svg version="1.1" id="Capa_1" xmlns="http://www.w3.org/2000/svg" xmlns:xlink="http://www.w3.org/1999/xlink" x="0px" y="0px"
	 viewBox="0 0 60 60" style="enable-background:new 0 0 60 60;" xml:space="preserve">
<style type="text/css">
	.st0{fill:#111111;}
</style>
<g>
	<path class="st0" d="M51.4,23.5L35,7c-0.2-2.5-2.4-4.5-5-4.5s-4.7,2-5,4.5L8.6,23.5H0v34h60v-34H51.4z M30,4.5c1.7,0,3,1.3,3,3
		s-1.3,3-3,3s-3-1.3-3-3S28.3,4.5,30,4.5z M25.4,9.5c0.8,1.8,2.5,3,4.6,3s3.8-1.2,4.6-3l14,14H11.4L25.4,9.5z M58,55.5H2v-30h56
		V55.5z"/>
	<path class="st0" d="M12,29.5c-2.8,0-5,2.2-5,5v12c0,2.8,2.2,5,5,5s5-2.2,5-5v-12C17,31.7,14.8,29.5,12,29.5z M15,46.5
		c0,1.7-1.3,3-3,3s-3-1.3-3-3v-12c0-1.7,1.3-3,3-3s3,1.3,3,3V46.5z"/>
	<path class="st0" d="M24,29.5c-2.8,0-5,2.2-5,5v5v11c0,0.6,0.4,1,1,1s1-0.4,1-1v-7c0.8,0.6,1.9,1,3,1c2.8,0,5-2.2,5-5v-5
		C29,31.7,26.8,29.5,24,29.5z M27,39.5c0,1.7-1.3,3-3,3s-3-1.3-3-3v-5c0-1.7,1.3-3,3-3s3,1.3,3,3V39.5z"/>
	<path class="st0" d="M51,45.3l-6.1-15.2c0,0,0,0,0,0c0-0.1-0.1-0.2-0.2-0.2c0,0,0-0.1-0.1-0.1c0,0-0.1,0-0.1-0.1
		c-0.1-0.1-0.1-0.1-0.2-0.2c0,0,0,0-0.1,0c-0.1,0-0.2-0.1-0.3-0.1c0,0,0,0,0,0c-0.1,0-0.1,0-0.2,0c-0.1,0-0.1,0-0.2,0c0,0,0,0,0,0
		c-0.1,0-0.2,0.1-0.2,0.2c0,0-0.1,0-0.1,0.1c0,0-0.1,0.1-0.1,0.1c0,0.1-0.1,0.1-0.1,0.2c0,0,0,0.1,0,0.1c0,0.1-0.1,0.2-0.1,0.3
		c0,0,0,0,0,0v20c0,0.6,0.4,1,1,1s1-0.4,1-1V35.7l6.1,15.2c0,0,0,0,0,0c0,0,0,0,0,0.1c0,0.1,0.1,0.2,0.2,0.2c0,0,0.1,0,0.1,0.1
		c0.1,0.1,0.1,0.1,0.2,0.1c0,0,0.1,0,0.1,0c0.1,0,0.2,0.1,0.3,0.1h0l0,0l0,0c0.1,0,0.2,0,0.4-0.1c0,0,0,0,0,0c0.1,0,0.2-0.1,0.2-0.2
		c0,0,0.1,0,0.1-0.1c0,0,0-0.1,0.1-0.1c0-0.1,0.1-0.1,0.1-0.2c0,0,0-0.1,0-0.1c0-0.1,0.1-0.2,0.1-0.3c0,0,0,0,0,0v-20
		c0-0.6-0.4-1-1-1s-1,0.4-1,1L51,45.3L51,45.3z"/>
	<path class="st0" d="M40,31.5c0.6,0,1-0.4,1-1s-0.4-1-1-1h-8c-0.6,0-1,0.4-1,1v20c0,0.6,0.4,1,1,1h8c0.6,0,1-0.4,1-1s-0.4-1-1-1h-7
		v-8h7c0.6,0,1-0.4,1-1s-0.4-1-1-1h-7v-8H40z"/>
</g>
</svg>
