<?xml version="1.0" encoding="utf-8"?>
<!-- Generator: Adobe Illustrator 22.1.0, SVG Export Plug-In . SVG Version: 6.00 Build 0)  -->
<svg version="1.1" id="Layer_1" xmlns="http://www.w3.org/2000/svg" xmlns:xlink="http://www.w3.org/1999/xlink" x="0px" y="0px"
	 viewBox="0 0 511.6 511.6" style="enable-background:new 0 0 511.6 511.6;" xml:space="preserve">
<style type="text/css">
	.st0{fill:#111111;}
</style>
<g transform="translate(1 1)">
	<g>
		<g>
			<path class="st0" d="M254.8,67.1c-103.3,0-187.7,84.5-187.7,187.7s84.5,187.7,187.7,187.7S442.5,358,442.5,254.8
				S358,67.1,254.8,67.1z M254.8,425.5c-93.9,0-170.7-76.8-170.7-170.7S160.9,84.1,254.8,84.1s170.7,76.8,170.7,170.7
				S348.7,425.5,254.8,425.5z"/>
			<path class="st0" d="M85.8,85.8c3.4-3.4,3.4-8.5,0-11.9s-8.5-3.4-11.9,0c-99.8,99.8-99.8,262,0,361.8c1.7,1.7,3.4,2.6,6,2.6
				s4.3-0.9,6-2.6c3.4-3.4,3.4-8.5,0-11.9C-7.2,330.7-7.2,178.8,85.8,85.8z"/>
			<path class="st0" d="M435.7,73.9c-3.4-3.4-8.5-3.4-11.9,0s-3.4,8.5,0,11.9c93,93,93,244.9,0,337.9c-3.4,3.4-3.4,8.5,0,11.9
				c1.7,1.7,3.4,2.6,6,2.6s4.3-0.9,6-2.6C535.5,335.9,535.5,173.7,435.7,73.9z"/>
			<path class="st0" d="M271.9,160.9h-51.2c-5.1,0-8.5,3.4-8.5,8.5v102.4v85.3c0,5.1,3.4,8.5,8.5,8.5s8.5-3.4,8.5-8.5v-76.8h42.7
				c33.3,0,59.7-26.5,59.7-59.7C331.6,187.4,305.1,160.9,271.9,160.9z M271.9,263.3h-42.7V178h42.7c23.9,0,42.7,18.8,42.7,42.7
				C314.5,244.5,295.7,263.3,271.9,263.3z"/>
		</g>
	</g>
</g>
</svg>
