<?xml version="1.0" encoding="utf-8"?>
<!-- Generator: Adobe Illustrator 22.1.0, SVG Export Plug-In . SVG Version: 6.00 Build 0)  -->
<svg version="1.1" id="Layer_1" xmlns="http://www.w3.org/2000/svg" xmlns:xlink="http://www.w3.org/1999/xlink" x="0px" y="0px"
	 viewBox="0 0 512 512" enable-background="new 0 0 512 512" xml:space="preserve">
<path fill="#FFFFFF" d="M502,386h-61v-40h61c5.5195,0,10-4.4805,10-10c0-61.4414-23.9219-119.1914-67.3711-162.6289
	c-35.4375-35.4492-80.4102-57.9023-129.1289-64.9609C312.3203,84.4297,294.3203,66,272.6719,66h-33.3438
	c-21.6484,0-39.6484,18.4297-42.8281,42.4102c-48.7188,7.0586-93.6914,29.5117-129.1289,64.9609C23.9219,216.8086,0,274.5586,0,336
	c0,5.5195,4.4805,10,10,10h61v40H10c-5.5195,0-10,4.4805-10,10v30c0,11.0312,8.9688,20,20,20h472c11.0312,0,20-8.9688,20-20v-30
	C512,390.4805,507.5195,386,502,386z M239.3281,86h33.3438c10.1367,0,18.7891,8.3594,22,20h-77.3438
	C220.5391,94.3594,229.1914,86,239.3281,86z M20.2383,326c0.3203-6.7617,0.9609-13.4297,1.9023-20h71.4883c5.5195,0,10-4.4688,10-10
	c0-5.5195-4.4805-10-10-10H26.0195C48.5,194.2617,131.4297,126,230,126h52c112.4414,0,204.5312,88.8281,209.7617,200H20.2383z
	 M421,346v40H91v-40H421z M492,426H20v-20h472l0.0117,20C492.0117,426,492.0117,426,492,426z"/>
<path fill="#FFFFFF" d="M133.6445,306.0039c-5.5195,0-10.0039-4.4766-10.0039-10s4.4727-10,9.9961-10h0.0078
	c5.5234,0,10,4.4766,10,10S139.1719,306.0039,133.6445,306.0039z"/>
</svg>
