<?xml version="1.0" encoding="utf-8"?>
<!-- Generator: Adobe Illustrator 22.1.0, SVG Export Plug-In . SVG Version: 6.00 Build 0)  -->
<svg version="1.1" xmlns="http://www.w3.org/2000/svg" xmlns:xlink="http://www.w3.org/1999/xlink" x="0px" y="0px"
	 viewBox="0 0 512 512" style="enable-background:new 0 0 512 512;" xml:space="preserve">
<style type="text/css">
	.st0{fill:#999999;}
</style>
<g id="Layer_1">
	<path class="st0" d="M490.2,261.3h-17.8c-1.7-27-8.2-53.1-19.6-77.6c-1.7-3.8-6.2-5.4-9.9-3.6c-3.8,1.7-5.4,6.2-3.6,9.9
		c10.5,22.5,16.6,46.5,18.2,71.3H114.3c-4.1,0-7.5,3.4-7.5,7.5s3.4,7.5,7.5,7.5h375.9c3.8,0,6.9,3.1,6.9,6.9v9.1
		c0,3.8-3.1,6.9-6.9,6.9H21.8c-3.8,0-6.9-3.1-6.9-6.9v-9.1c0-3.8,3.1-6.9,6.9-6.9h57.5c4.1,0,7.5-3.4,7.5-7.5s-3.4-7.5-7.5-7.5H54.6
		c3.3-49.8,24.6-96,60.6-131c34.7-33.7,79.4-53.6,127.3-56.7c0,0,0.1,0,0.1,0c2-0.1,4.1-0.2,6-0.3c0.4,0,0.8,0,1.2,0
		c0.7,0,1.4,0,2.1-0.1c1.3,0,2.7,0,4,0c1.8,0,3.6,0,5.4,0.1c0.5,0,1.1,0,1.6,0c1.4,0,2.7,0.1,4.1,0.2c0.7,0,1.5,0.1,2.2,0.1
		c61.5,4,118.1,36,153.3,87.3c2.3,3.4,7,4.3,10.4,1.9c3.4-2.3,4.3-7,1.9-10.4c-34.6-50.5-88.6-83.5-148.2-92
		c3.7-5.8,5.8-12.6,5.8-19.8c0-4.1-1.8-11.6-14-16.1c-6.1-2.2-14.1-3.5-22.6-3.5c-8.5,0-16.5,1.2-22.6,3.5c-12.2,4.5-14,12-14,16.1
		c0,7.1,2.1,13.9,5.8,19.7c-45.2,6.4-87.2,26.9-120.5,59.3c-38.9,37.8-61.8,87.9-65.2,141.8H21.8c-12,0-21.8,9.8-21.8,21.9v9.1
		c0,12.1,9.8,21.9,21.8,21.9h80.7c-4,2.8-7.9,5.9-11.5,9.3l-0.1,0.1c-0.2,0.2-0.4,0.4-0.6,0.7l-35.6,43.2c-4.5-2.8-9.7-3.9-15-2.9
		c-5.4,1-10.1,4.1-13.2,8.7l-14,20.6c-6.4,9.4-3.9,22.3,5.5,28.7l95.7,65c3.5,2.4,7.5,3.6,11.6,3.6c1.3,0,2.6-0.1,3.9-0.4
		c5.4-1,10.1-4.1,13.2-8.7l14-20.6c6.4-9.4,3.9-22.3-5.5-28.7l-0.5-0.4c6.7-7.6,15.5-13,25.2-15.2c20.4-4.7,44.3-1.7,60.6,1
		c20.1,3.3,41.2,2.2,61-3.3l27.6-7.6c18.4-5.1,35.3-13.6,50.3-25.4c0.1-0.1,0.2-0.2,0.3-0.3l47.3-41.9c8.1-6.2,9.8-16.9,7-25.5h60.4
		c12,0,21.8-9.8,21.8-21.8v-9.1C512,271.1,502.2,261.3,490.2,261.3z M256,36c12.6,0,20.2,3.1,21.6,4.9c-0.1,7.1-3.7,13.7-9.5,17.6
		c-1.5-0.1-2.9-0.1-4.4-0.2c-0.5,0-1,0-1.5-0.1c-2.1-0.1-4.2-0.1-6.2-0.1c-1.4,0-2.9,0-4.4,0.1c-0.7,0-1.4,0-2.1,0.1
		c-0.9,0-1.7,0.1-2.6,0.1c-1,0-2,0.1-2.9,0.1c-5.8-3.9-9.4-10.5-9.5-17.6C235.8,39.1,243.4,36,256,36z M309.7,317.8
		c-0.6-1.3-1.2-2.5-2-3.6h71.8l-31.1,20.6l-44.3,12.8l-1.5,0C311.2,340.4,314.4,328.3,309.7,317.8z M228.5,314.1l-10.8,2.3l-8.4-2.3
		H228.5z M144,453.1l-14,20.6c-0.9,1.3-2.2,2.1-3.7,2.4c-1.5,0.3-3,0-4.3-0.9l-95.7-65c-2.6-1.8-3.3-5.3-1.5-7.9l14-20.6
		c0.9-1.3,2.1-2.1,3.6-2.4c0.4-0.1,0.7-0.1,1.1-0.1c1.1,0,2.2,0.3,3.2,1l5.2,3.5c0,0,0,0,0,0l90.5,61.5
		C145.1,446.9,145.8,450.5,144,453.1z M413.5,327.9c-0.2,0.1-0.4,0.3-0.5,0.4l-47.4,42c-13.4,10.5-28.4,18.1-44.8,22.6l-27.6,7.6
		c-17.8,4.9-36.6,5.9-54.6,3c-17.5-2.9-43.4-6.1-66.4-0.8c-13.3,3.1-25.4,10.7-34.3,21.3l-70.8-48.1l34.4-41.7
		c13-12.3,29.5-19.6,45.3-20h0.3c4.9-0.1,10.1,1.4,15.6,2.9c1.1,0.3,2.2,0.6,3.3,0.9l49.6,13.4c1.1,0.3,2.3,0.3,3.5,0.1l65-13.5
		c2.9-0.6,6,0,8.5,1.6c1.6,1.1,2.8,2.6,3.6,4.3c2.2,5.1,0.1,11-4.8,13.5L269,349.1c-3.1,1.6-4.6,5.1-3.7,8.5
		c0.9,3.4,3.9,5.7,7.4,5.6l32.9-0.7c0.7,0,1.3-0.1,1.9-0.3l46.3-13.4c0.7-0.2,1.4-0.5,2.1-0.9l46.7-30.9c3.9-2.4,9.1-4.4,11.9-0.3
		C416.6,319.8,416.7,325.5,413.5,327.9z"/>
</g>
<g id="Layer_1_copy">
</g>
</svg>
