<?xml version="1.0" encoding="utf-8"?>
<!-- Generator: Adobe Illustrator 22.1.0, SVG Export Plug-In . SVG Version: 6.00 Build 0)  -->
<svg version="1.1" id="Capa_1" xmlns="http://www.w3.org/2000/svg" xmlns:xlink="http://www.w3.org/1999/xlink" x="0px" y="0px"
	 viewBox="0 0 58 58" style="enable-background:new 0 0 58 58;" xml:space="preserve">
<style type="text/css">
	.st0{fill:#111111;}
</style>
<g>
	<path class="st0" d="M45.8,6.2c-1.9-0.2-3.8-0.1-5.6,0.4C37.5,3.1,33.4,1,29,1s-8.5,2.1-11.2,5.5c-1.8-0.5-3.7-0.7-5.6-0.4
		C5.3,7.1,0.1,13,0,19.9c-0.1,6.5,4.3,12.1,10.6,13.7c1.5,0.4,2.6,1.7,2.7,3.2l0.8,8.8h0l0.5,5c0.2,2.1,2.9,3.6,4.1,4.1
		c0.2,0.1,0.3,0.1,0.4,0.2c3.1,1.3,6.5,2,9.9,2c3.4,0,6.7-0.7,9.9-2c0.7-0.3,4.2-1.9,4.4-4.3l0.5-5h0l0.8-8.8
		c0.1-1.5,1.2-2.8,2.7-3.2c6.3-1.6,10.7-7.2,10.6-13.7C57.9,13,52.7,7.1,45.8,6.2z M38.1,53.1c-5.8,2.4-12.4,2.4-18.2,0
		c-1.2-0.5-3.1-1.7-3.2-2.7l-0.1-1.3c4,1.9,8.1,2.9,12.5,2.9s8.5-1,12.5-2.9l-0.1,1.3C41.2,51.4,39.4,52.6,38.1,53.1z M46.9,31.7
		c-2.3,0.6-4,2.6-4.3,4.9l-1,10.2c-4,2.2-8.3,3.3-12.7,3.3s-8.7-1.1-12.7-3.3l-1-10.2c-0.2-2.4-1.9-4.4-4.3-4.9
		C5.7,30.3,2,25.5,2,19.9c0.1-6,4.6-11,10.5-11.8C13,8.1,13.5,8,14,8c1.3,0,2.6,0.2,3.9,0.7L18.6,9l0.4-0.6C21.3,5,25,3,29,3
		s7.7,2,9.9,5.3L39.4,9l0.7-0.2c1.8-0.6,3.6-0.8,5.4-0.6C51.4,8.9,55.9,14,56,19.9C56,25.5,52.3,30.3,46.9,31.7z"/>
	<path class="st0" d="M18.9,35.1c-0.5,0.1-0.9,0.6-0.9,1.1l1,8c0.1,0.5,0.5,0.9,1,0.9c0,0,0.1,0,0.1,0c0.5-0.1,0.9-0.6,0.9-1.1l-1-8
		C19.9,35.4,19.4,35,18.9,35.1z"/>
	<path class="st0" d="M26,37c-0.6,0-1,0.4-1,1v8c0,0.6,0.4,1,1,1s1-0.4,1-1v-8C27,37.5,26.6,37,26,37z"/>
	<path class="st0" d="M39.1,35.1c-0.5-0.1-1,0.3-1.1,0.9l-1,8c-0.1,0.5,0.3,1,0.9,1.1c0,0,0.1,0,0.1,0c0.5,0,0.9-0.4,1-0.9l1-8
		C40.1,35.6,39.7,35.1,39.1,35.1z"/>
	<path class="st0" d="M32,37c-0.6,0-1,0.4-1,1v8c0,0.6,0.4,1,1,1c0.6,0,1-0.4,1-1v-8C33,37.5,32.6,37,32,37z"/>
	<path class="st0" d="M16,11C7.7,11,6,17.8,6,17.8c-0.1,0.5,0.2,1.1,0.8,1.2c0.1,0,0.1,0,0.2,0c0.5,0,0.9-0.3,1-0.8
		c0-0.1,1.2-5.3,8-5.2c0.5,0,1-0.4,1-1S16.6,11.1,16,11z"/>
	<path class="st0" d="M23.4,7.3c-0.4,0.3-0.5,1-0.2,1.4c0.3,0.4,1,0.5,1.4,0.2c0,0,4.2-3.2,8.8,0C33.6,9,33.8,9,34,9
		c0.3,0,0.6-0.1,0.8-0.4c0.3-0.5,0.2-1.1-0.2-1.4C29.9,4,25.2,5.8,23.4,7.3z"/>
</g>
</svg>
