<?xml version="1.0" encoding="utf-8"?>
<!-- Generator: Adobe Illustrator 22.1.0, SVG Export Plug-In . SVG Version: 6.00 Build 0)  -->
<svg version="1.1" id="Capa_1" xmlns="http://www.w3.org/2000/svg" xmlns:xlink="http://www.w3.org/1999/xlink" x="0px" y="0px"
	 viewBox="0 0 512 512" style="enable-background:new 0 0 512 512;" xml:space="preserve">
<style type="text/css">
	.st0{fill:#111111;}
</style>
<g>
	<g>
		<g>
			<path class="st0" d="M486.4,59.7H25.6C11.5,59.7,0,71.2,0,85.3v341.3c0,14.1,11.5,25.6,25.6,25.6h460.8
				c14.1,0,25.6-11.5,25.6-25.6V85.3C512,71.2,500.5,59.7,486.4,59.7z M494.9,426.7c0,4.7-3.8,8.5-8.5,8.5H25.6
				c-4.7,0-8.5-3.8-8.5-8.5V85.3c0-4.7,3.8-8.5,8.5-8.5h460.8c4.7,0,8.5,3.8,8.5,8.5L494.9,426.7L494.9,426.7z"/>
			<path class="st0" d="M470.1,93.9c-2.3-0.2-4.5,0.5-6.2,2L267,261.2c-6.3,5.3-15.6,5.3-22,0L48.2,95.9c-2.3-2-5.5-2.5-8.4-1.5
				c-2.9,1-5,3.5-5.5,6.5s0.6,6.1,2.9,8L234,274.3c12.7,10.7,31.2,10.7,43.9,0l196.9-165.4c1.7-1.5,2.8-3.5,3-5.8
				c0.2-2.3-0.5-4.5-2-6.2C474.4,95.2,472.3,94.1,470.1,93.9z"/>
			<path class="st0" d="M164.1,273.1c-3-0.7-6.2,0.3-8.2,2.6l-119.5,128c-2.2,2.2-3,5.4-2.1,8.4c0.9,3,3.3,5.2,6.3,5.9
				c3,0.7,6.2-0.3,8.2-2.6l119.5-128c2.2-2.2,3-5.4,2.1-8.4S167.1,273.8,164.1,273.1z"/>
			<path class="st0" d="M356.1,275.8c-2.1-2.3-5.2-3.3-8.2-2.6s-5.4,2.9-6.3,5.9c-0.9,3-0.1,6.2,2.1,8.4l119.5,128
				c3.2,3.3,8.5,3.4,11.9,0.3c3.4-3.2,3.6-8.5,0.5-11.9L356.1,275.8z"/>
		</g>
	</g>
</g>
</svg>
