<?xml version="1.0" encoding="utf-8"?>
<!-- Generator: Adobe Illustrator 22.1.0, SVG Export Plug-In . SVG Version: 6.00 Build 0)  -->
<svg version="1.1" id="logo-light" xmlns="http://www.w3.org/2000/svg" xmlns:xlink="http://www.w3.org/1999/xlink" x="0px" y="0px"
	 viewBox="0 0 102.0623 44.4775" enable-background="new 0 0 102.0623 44.4775" xml:space="preserve">
<g>
	<path fill="#FFFFFF" stroke="#FFFFFF" stroke-width="2" stroke-miterlimit="10" d="M20.1162,6.1475
		c0.0479,0.4326-0.126,0.6484-0.5225,0.6484c-0.3955,0-0.6543-0.1924-0.7734-0.5762C18.46,5.0674,17.9199,4.252,17.2002,3.7715
		c-0.7207-0.4795-1.7168-0.7197-2.9883-0.7197h-5.292c-0.5283,0-0.9541,0.1504-1.2783,0.4502S7.1553,4.2158,7.1553,4.7441v7.9199
		c0,0.3115,0.1562,0.4678,0.4688,0.4678H13.96c0.3115,0,0.5693-0.0781,0.7734-0.2344c0.2041-0.1553,0.3359-0.3174,0.3965-0.4854
		c0.0596-0.168,0.1494-0.4326,0.2695-0.792l0.1445-0.4688c0.0713-0.2637,0.2275-0.3955,0.4678-0.3955
		c0.3359,0,0.5039,0.1562,0.5039,0.4678l-0.1436,3.0957l0.1436,2.9883c0,0.3369-0.1494,0.5039-0.4492,0.5039
		c-0.3008,0-0.4746-0.1436-0.5225-0.4316l-0.1084-0.6484c-0.0957-0.624-0.2461-1.0918-0.4502-1.4033
		c-0.2041-0.3125-0.5459-0.4688-1.0254-0.4688H7.5879c-0.2881,0-0.4326,0.1689-0.4326,0.5039v8.8564
		c0,0.8877,0.5283,1.3799,1.584,1.4756l1.0801,0.0723c0.2881,0,0.4326,0.1445,0.4326,0.4316c0,0.3604-0.1807,0.54-0.54,0.54
		l-4.1406-0.1436l-4.0674,0.1436C1.167,26.7393,1,26.5781,1,26.2539s0.1309-0.4863,0.3955-0.4863l1.0439-0.0723
		c0.4805-0.0479,0.876-0.1973,1.1885-0.4492c0.3115-0.252,0.4678-0.5947,0.4678-1.0264V3.7715c0-0.8643-0.5527-1.3438-1.6562-1.4395
		L1.3955,2.2236C1.1309,2.2236,1,2.0615,1,1.7373C1,1.4141,1.167,1.252,1.5039,1.252l4.0674,0.1436h12.4209
		c0.4551,0,0.8281,0.1387,1.1162,0.4141c0.2871,0.2764,0.4551,0.6182,0.5039,1.0264L20.1162,6.1475z"/>
	<path fill="#FFFFFF" stroke="#FFFFFF" stroke-width="2" stroke-miterlimit="10" d="M36.7652,1
		c3.7803,0,6.8154,1.2061,9.1074,3.6182c2.292,2.4111,3.4385,5.5137,3.4385,9.3057s-1.1699,6.918-3.5098,9.3779
		s-5.377,3.6904-9.1084,3.6904c-3.7324,0-6.7627-1.2246-9.0898-3.6729c-2.3281-2.4473-3.4922-5.5488-3.4922-9.3057
		c0-3.7559,1.1641-6.8633,3.4922-9.3242C29.9302,2.2295,32.9849,1,36.7652,1z M43.8394,6.6514
		c-0.6963-1.2236-1.6562-2.1953-2.8799-2.916c-1.2246-0.7197-2.6523-1.0801-4.2842-1.0801c-2.9287,0-5.1904,0.8945-6.7861,2.6826
		c-1.5967,1.7881-2.3945,4.2178-2.3945,7.29c0,3.1924,0.7207,6.0479,2.1602,8.5674c0.6963,1.249,1.668,2.25,2.916,3.0068
		c1.248,0.7559,2.6758,1.1338,4.2842,1.1338c2.8555,0,5.082-0.9365,6.6777-2.8086s2.3945-4.3916,2.3945-7.5596
		S45.231,9.0273,43.8394,6.6514z"/>
	<path fill="#FFFFFF" stroke="#FFFFFF" stroke-width="2" stroke-miterlimit="10" d="M58.8152,25.6953
		c0.2881,0.0244,0.4326,0.1924,0.4326,0.5039c0,0.3125-0.1807,0.4688-0.54,0.4688l-2.7363-0.0723l-3.7803,0.1084
		c-0.3359,0-0.5039-0.1445-0.5039-0.4326s0.1318-0.4551,0.3965-0.5039l1.0801-0.1074c0.7197-0.0723,1.4033-0.5527,2.0518-1.4404
		l6.876-9.9355L55.1795,3.7715c-0.5762-0.8877-1.2725-1.3682-2.0879-1.4395l-1.0439-0.1084
		c-0.2646-0.0479-0.3965-0.2158-0.3965-0.5039s0.168-0.4316,0.5039-0.4316l3.3119,0.1074l3.708-0.0723
		c0.3604,0,0.54,0.1572,0.54,0.4688s-0.1436,0.4805-0.4316,0.5039L58.635,2.3682c-0.4082,0.0479-0.6836,0.2217-0.8271,0.5215
		c-0.1445,0.3008-0.1211,0.5938,0.0713,0.8818l6.0484,7.8838l5.4717-7.8838c0.2158-0.2637,0.252-0.5518,0.1084-0.8643
		c-0.1445-0.3115-0.4326-0.4912-0.8643-0.5391l-0.6836-0.0723c-0.2881-0.0234-0.4326-0.1924-0.4326-0.5039
		s0.1807-0.4688,0.54-0.4688l2.7363,0.0723l3.7803-0.1074c0.3359,0,0.5039,0.1436,0.5039,0.4316s-0.1328,0.4561-0.3965,0.5039
		L73.6111,2.332c-0.7197,0.0713-1.4033,0.5518-2.0518,1.4395l-6.5879,9.4678l7.2363,10.9805c0.623,0.8877,1.332,1.3682,2.124,1.4404
		l1.0078,0.1074c0.2637,0.0488,0.3955,0.2158,0.3955,0.5039s-0.168,0.4326-0.5039,0.4326l-4.1758-0.1084l-3.7441,0.0723
		c-0.3604,0-0.54-0.1562-0.54-0.4688c0-0.3115,0.1445-0.4795,0.4326-0.5039l0.6836-0.0713
		c0.4082-0.0479,0.6836-0.2217,0.8281-0.5225c0.1436-0.2998,0.1201-0.5938-0.0723-0.8818l-5.5078-8.3516l-6.6598,8.3516
		c-0.2168,0.2881,0.648,0.582,0.7916,0.8818c0.1445,0.3008,0.4316,0.4746,0.8643,0.5225L58.8152,25.6953z"/>
	<path fill="#FFFFFF" stroke="#FFFFFF" stroke-width="2" stroke-miterlimit="10" d="M98.8602,26.5957h-13.5l-4.0684,0.1436
		c-0.3359,0-0.5039-0.1611-0.5039-0.4854s0.1318-0.4863,0.3955-0.4863l1.0439-0.0723c0.4805-0.0479,0.876-0.1973,1.1885-0.4492
		c0.3115-0.252,0.4678-0.5947,0.4678-1.0264V3.7715c0-0.8643-0.5518-1.3438-1.6562-1.4395l-1.0439-0.1084
		c-0.2637,0-0.3955-0.1621-0.3955-0.4863c0-0.3232,0.168-0.4854,0.5039-0.4854l4.0684,0.1436h12.7793
		c0.4561,0,0.8281,0.1387,1.1162,0.4141c0.2881,0.2764,0.4561,0.6182,0.5039,1.0264l0.5039,3.3115
		c0.0479,0.4326-0.126,0.6484-0.5215,0.6484c-0.3965,0-0.6543-0.1924-0.7744-0.5762c-0.3594-1.1523-0.8994-1.9678-1.6201-2.4482
		c-0.7197-0.4795-1.7158-0.7197-2.9873-0.7197h-5.6523c-0.5283,0-0.9541,0.1504-1.2783,0.4502
		c-0.3232,0.2998-0.4854,0.7139-0.4854,1.2422v7.5596c0,0.3125,0.1553,0.4678,0.4678,0.4678h6.6963
		c0.335,0,0.5996-0.084,0.792-0.252c0.1914-0.167,0.3174-0.3242,0.3779-0.4678c0.0596-0.1445,0.1494-0.4082,0.2695-0.792
		l0.1445-0.4678c0.0713-0.2881,0.252-0.4326,0.54-0.4326c0.2871,0,0.4316,0.1689,0.4316,0.5039l-0.1445,3.0605l0.1445,2.916
		c0,0.3125-0.1562,0.4922-0.4678,0.54c-0.2881,0-0.4561-0.1445-0.5039-0.4326l-0.1084-0.6475
		c-0.2158-1.248-0.708-1.8721-1.4756-1.8721h-6.7324c-0.2881,0-0.4316,0.168-0.4316,0.5039v8.3525
		c0,0.5039,0.1621,0.9053,0.4854,1.2051c0.3242,0.3008,0.75,0.4502,1.2783,0.4502h5.9404c1.2471,0,2.3213-0.3057,3.2217-0.918
		c0.8994-0.6113,1.5303-1.5059,1.8896-2.6816c0.1201-0.3838,0.3184-0.5762,0.5947-0.5762c0.2754,0,0.4678,0.0664,0.5752,0.1982
		c0.1084,0.1318,0.1504,0.2822,0.126,0.4502l-0.5752,3.7432c-0.0488,0.4092-0.2227,0.751-0.5225,1.0264
		C99.6571,26.458,99.2919,26.5957,98.8602,26.5957z"/>
</g>
<g>
	<path fill="#FFFFFF" stroke="#FFFFFF" stroke-width="0.25" stroke-miterlimit="10" d="M9.2684,44.2246h-1.376
		c-0.2827,0-0.4907-0.1094-0.624-0.3281l-2.9761-4.0957c-0.0908-0.1279-0.188-0.2197-0.292-0.2764
		c-0.104-0.0557-0.2651-0.084-0.4839-0.084H2.3402v4.7842H0.7962V32.7607h3.2402c0.7251,0,1.3521,0.0732,1.8799,0.2197
		s0.9639,0.3594,1.3081,0.6357c0.3438,0.2773,0.5986,0.6123,0.7637,1.0049c0.1655,0.3916,0.248,0.8301,0.248,1.3154
		c0,0.4053-0.064,0.7842-0.1919,1.1357c-0.1279,0.3525-0.3135,0.668-0.5562,0.9482s-0.5386,0.5186-0.8877,0.7158
		c-0.3496,0.1973-0.7456,0.3467-1.188,0.4482c0.1973,0.1123,0.3682,0.2744,0.5117,0.4883L9.2684,44.2246z M3.9725,38.3125
		c0.4478,0,0.8438-0.0547,1.188-0.1641c0.3438-0.1094,0.6318-0.2637,0.8638-0.4639s0.4067-0.4385,0.5239-0.7158
		s0.1763-0.584,0.1763-0.9199c0-0.6826-0.2241-1.1973-0.6719-1.5439c-0.4482-0.3467-1.1201-0.5205-2.0161-0.5205H2.3402v4.3281
		H3.9725z"/>
	<path fill="#FFFFFF" stroke="#FFFFFF" stroke-width="0.25" stroke-miterlimit="10" d="M31.0443,42.9609l-0.0083,1.2637h-7.064
		V32.7607h7.064v1.2637h-5.5117v3.8086h4.4639v1.2158h-4.4639v3.9121H31.0443z"/>
	<path fill="#FFFFFF" stroke="#FFFFFF" stroke-width="0.25" stroke-miterlimit="10" d="M52.2289,34.5527
		c-0.0479,0.0801-0.1006,0.1396-0.1562,0.1797s-0.124,0.0605-0.2041,0.0605c-0.0908,0-0.1973-0.0459-0.3193-0.1367
		c-0.123-0.0898-0.2764-0.1904-0.46-0.2998c-0.1846-0.1094-0.4062-0.209-0.6641-0.2998c-0.2588-0.0908-0.5723-0.1357-0.9404-0.1357
		c-0.3467,0-0.6523,0.0469-0.916,0.1396c-0.2637,0.0938-0.4854,0.2197-0.6641,0.3799s-0.3135,0.3486-0.4043,0.5645
		s-0.1357,0.4492-0.1357,0.7002c0,0.3193,0.0791,0.585,0.2363,0.7959c0.1572,0.21,0.3652,0.3906,0.624,0.54
		s0.5518,0.2783,0.8799,0.3877s0.6641,0.2227,1.0078,0.3398s0.6797,0.249,1.0078,0.3965c0.3281,0.1465,0.6211,0.332,0.8799,0.5557
		s0.4668,0.499,0.624,0.8242s0.2363,0.7246,0.2363,1.1992c0,0.502-0.085,0.9727-0.2559,1.4121
		c-0.1709,0.4404-0.4199,0.8232-0.748,1.1484s-0.7305,0.5811-1.208,0.7676s-1.0205,0.2803-1.6279,0.2803
		c-0.7471,0-1.4238-0.1348-2.0322-0.4043c-0.6074-0.2686-1.1279-0.6328-1.5596-1.0918l0.4473-0.7354
		c0.043-0.0596,0.0947-0.1084,0.1562-0.1484s0.1299-0.0596,0.2041-0.0596c0.0693,0,0.1484,0.0273,0.2363,0.084
		c0.0879,0.0557,0.1875,0.126,0.2998,0.2119c0.1123,0.085,0.2402,0.1787,0.3838,0.2793c0.1445,0.1016,0.3086,0.1953,0.4922,0.2803
		s0.3936,0.1562,0.6279,0.2119s0.499,0.084,0.792,0.084c0.3682,0,0.6963-0.0508,0.9844-0.1514
		c0.2881-0.1016,0.5312-0.2441,0.7314-0.4287c0.2002-0.1836,0.3535-0.4033,0.46-0.6602c0.1064-0.2559,0.1602-0.541,0.1602-0.8555
		c0-0.3467-0.0791-0.6309-0.2363-0.8525c-0.1572-0.2207-0.3633-0.4062-0.6191-0.5557c-0.2568-0.1494-0.5498-0.2764-0.8809-0.3799
		c-0.3301-0.1045-0.666-0.2109-1.0078-0.3203c-0.3408-0.1094-0.6768-0.2354-1.0078-0.3799
		c-0.3311-0.1436-0.624-0.3301-0.8799-0.5596s-0.4629-0.5166-0.6201-0.8604s-0.2363-0.7695-0.2363-1.2764
		c0-0.4053,0.0791-0.7969,0.2363-1.1758c0.1572-0.3779,0.3867-0.7148,0.6885-1.0078c0.3008-0.293,0.6719-0.5283,1.1113-0.7041
		c0.4404-0.1758,0.9453-0.2637,1.5166-0.2637c0.6396,0,1.2227,0.1016,1.748,0.3037c0.5244,0.2031,0.9873,0.4961,1.3877,0.8799
		L52.2289,34.5527z"/>
	<path fill="#FFFFFF" stroke="#FFFFFF" stroke-width="0.25" stroke-miterlimit="10" d="M75.9476,34.0645h-3.7119v10.1602h-1.5439
		V34.0645H66.972v-1.3037h8.9756V34.0645z"/>
	<path fill="#FFFFFF" stroke="#FFFFFF" stroke-width="0.25" stroke-miterlimit="10" d="M100.8763,38.4971
		c0,0.8584-0.1357,1.6465-0.4072,2.3633c-0.2725,0.7178-0.6562,1.335-1.1523,1.8525s-1.0918,0.9189-1.7881,1.2041
		s-1.4658,0.4277-2.3076,0.4277c-0.8428,0-1.6113-0.1426-2.3047-0.4277s-1.2881-0.6865-1.7842-1.2041
		c-0.4951-0.5176-0.8799-1.1348-1.1514-1.8525c-0.2725-0.7168-0.4082-1.5049-0.4082-2.3633c0-0.8594,0.1357-1.6475,0.4082-2.3643
		c0.2715-0.7178,0.6562-1.3359,1.1514-1.8564c0.4961-0.5195,1.0908-0.9238,1.7842-1.2119s1.4619-0.4316,2.3047-0.4316
		c0.8418,0,1.6113,0.1436,2.3076,0.4316s1.292,0.6924,1.7881,1.2119c0.4961,0.5205,0.8799,1.1387,1.1523,1.8564
		C100.7406,36.8496,100.8763,37.6377,100.8763,38.4971z M99.2845,38.4971c0-0.7041-0.0957-1.3369-0.2881-1.8965
		c-0.1914-0.5596-0.4639-1.0332-0.8154-1.4199c-0.3525-0.3867-0.7793-0.6836-1.2803-0.8916s-1.0615-0.3125-1.6797-0.3125
		c-0.6133,0-1.1709,0.1045-1.6729,0.3125c-0.501,0.208-0.9287,0.5049-1.2832,0.8916c-0.3555,0.3867-0.6279,0.8604-0.8203,1.4199
		s-0.2881,1.1924-0.2881,1.8965c0,0.7031,0.0957,1.334,0.2881,1.8916s0.4648,1.0293,0.8203,1.416
		c0.3545,0.3867,0.7822,0.6826,1.2832,0.8877c0.502,0.2061,1.0596,0.3086,1.6729,0.3086c0.6182,0,1.1787-0.1025,1.6797-0.3086
		c0.501-0.2051,0.9277-0.501,1.2803-0.8877c0.3516-0.3867,0.624-0.8584,0.8154-1.416
		C99.1888,39.8311,99.2845,39.2002,99.2845,38.4971z"/>
</g>
</svg>
