<?xml version="1.0" encoding="utf-8"?>
<!-- Generator: Adobe Illustrator 22.1.0, SVG Export Plug-In . SVG Version: 6.00 Build 0)  -->
<svg version="1.1" id="Capa_1" xmlns="http://www.w3.org/2000/svg" xmlns:xlink="http://www.w3.org/1999/xlink" x="0px" y="0px"
	 viewBox="0 0 512.1 512.1" style="enable-background:new 0 0 512.1 512.1;" xml:space="preserve">
<style type="text/css">
	.st0{fill:#111111;}
</style>
<g transform="translate(-1 -1)">
	<g>
		<g>
			<path class="st0" d="M499.6,396L396,326.9c-13.2-8.7-30.8-5.8-40.5,6.6l-30.2,38.8c-3.9,5.1-10.9,6.6-16.5,3.5l-5.7-3.2
				c-19-10.4-42.7-23.3-90.5-71s-60.7-71.4-71-90.5l-3.1-5.7c-3.2-5.6-1.7-12.7,3.4-16.6l38.8-30.2c12.4-9.7,15.3-27.4,6.6-40.5
				L118,14.5C109.1,1.1,91.2-3,77.5,5.3l-43.3,26c-13.6,8-23.6,21-27.9,36.2c-15.6,56.9-3.9,155,140.7,299.6
				c115,115,200.6,145.9,259.5,145.9c13.5,0.1,27-1.7,40.1-5.2c15.2-4.3,28.2-14.3,36.2-27.9l26.1-43.3
				C517.1,422.8,513,405,499.6,396z M494.1,427.9l-26,43.3c-5.7,9.8-15.1,17.1-26,20.2c-52.5,14.4-144.2,2.5-283-136.3
				S8.3,124.6,22.7,72.1c3.1-11,10.4-20.3,20.2-26.1l43.3-26c6-3.6,13.7-1.9,17.6,4l37.5,56.4l31.5,47.3c3.8,5.7,2.5,13.4-2.9,17.6
				l-38.8,30.2c-11.8,9-15.2,25.4-7.9,38.3l3.1,5.6c10.9,20,24.5,44.9,74,94.4c49.5,49.5,74.4,63.1,94.4,74l5.6,3.1
				c13,7.3,29.3,3.9,38.3-7.9l30.2-38.8c4.2-5.4,11.9-6.6,17.6-2.9l103.6,69.1C495.9,414.1,497.7,421.9,494.1,427.9z"/>
			<path class="st0" d="M291.2,86.4c80.1,0.1,145,65,145.1,145.1c0,4.7,3.8,8.5,8.5,8.5s8.5-3.8,8.5-8.5
				c-0.1-89.5-72.6-162-162.1-162.1c-4.7,0-8.5,3.8-8.5,8.5S286.4,86.4,291.2,86.4z"/>
			<path class="st0" d="M291.2,137.6c51.8,0.1,93.8,42.1,93.9,93.9c0,4.7,3.8,8.5,8.5,8.5c4.7,0,8.5-3.8,8.5-8.5
				c-0.1-61.2-49.7-110.9-110.9-110.9c-4.7,0-8.5,3.8-8.5,8.5C282.6,133.8,286.4,137.6,291.2,137.6z"/>
			<path class="st0" d="M291.2,188.8c23.6,0,42.6,19.1,42.7,42.7c0,4.7,3.8,8.5,8.5,8.5s8.5-3.8,8.5-8.5c0-33-26.8-59.7-59.7-59.7
				c-4.7,0-8.5,3.8-8.5,8.5S286.4,188.8,291.2,188.8z"/>
		</g>
	</g>
</g>
</svg>
