<?xml version="1.0" encoding="utf-8"?>
<!-- Generator: Adobe Illustrator 22.1.0, SVG Export Plug-In . SVG Version: 6.00 Build 0)  -->
<svg version="1.1" id="quote-icon" xmlns="http://www.w3.org/2000/svg" xmlns:xlink="http://www.w3.org/1999/xlink" x="0px" y="0px"
	 viewBox="0 0 122.9 94.8" style="enable-background:new 0 0 122.9 94.8;" xml:space="preserve">
<style type="text/css">
	.st0{opacity:0.8;}
	.st1{opacity:0.8;fill:#FFFFFF;}
</style>
<g class="st0">
	<path class="st1" d="M122.9,8.2c-5.4,1.5-10.4,3.7-15.2,6.5c-4.8,2.8-8.9,6-12.3,9.6c-3.5,3.6-6.2,7.5-8.2,11.7
		c-2,4.2-3,8.5-3,12.9c0,2.5,0.5,4.7,1.5,6.7c1,2,2.3,2.9,3.8,2.9c1.5,0,2.8-0.3,3.8-0.9c1-0.6,2-1.2,3-1.9c1-0.7,2.2-1.3,3.6-1.9
		c1.4-0.6,3.2-0.9,5.4-0.9c2.4,0,4.6,0.5,6.7,1.5c2.1,1,3.9,2.4,5.5,4.3c1.6,1.8,2.9,4,3.8,6.4c1,2.4,1.4,5.1,1.4,7.9
		c0,3.1-0.6,6-1.9,8.6c-1.3,2.6-3,4.9-5.2,6.9c-2.2,2-4.8,3.5-7.8,4.6c-3,1.1-6.1,1.6-9.5,1.6c-4.4,0-8.5-1-12.3-2.9
		c-3.8-2-7.1-4.6-10-8c-2.9-3.4-5.1-7.3-6.7-11.8c-1.6-4.5-2.4-9.3-2.4-14.4c0-8.1,1.5-15.5,4.6-22.3c3-6.8,7.1-12.7,12.1-17.8
		c5.1-5.1,11-9.1,17.7-12.2c6.7-3.1,13.8-4.9,21.3-5.4L122.9,8.2L122.9,8.2z"/>
	<path class="st1" d="M55.7,8.2c-5.4,1.5-10.4,3.7-15.2,6.5c-4.8,2.8-8.9,6-12.3,9.6C24.8,27.9,22,31.8,20,36c-2,4.2-3,8.5-3,12.9
		c0,2.5,0.5,4.7,1.5,6.7c1,2,2.3,2.9,3.8,2.9c1.5,0,2.8-0.3,3.8-0.9c1-0.6,2-1.2,3-1.9c1-0.7,2.2-1.3,3.6-1.9
		c1.4-0.6,3.2-0.9,5.4-0.9c2.4,0,4.6,0.5,6.7,1.5c2.1,1,3.9,2.4,5.5,4.3c1.6,1.8,2.9,4,3.8,6.4c1,2.4,1.4,5.1,1.4,7.9
		c0,3.1-0.6,6-1.9,8.6c-1.3,2.6-3,4.9-5.2,6.9c-2.2,2-4.8,3.5-7.8,4.6c-3,1.1-6.1,1.6-9.5,1.6c-4.4,0-8.5-1-12.3-2.9
		c-3.8-2-7.1-4.6-10-8C6.3,80.5,4,76.5,2.4,72.1C0.8,67.6,0,62.8,0,57.7c0-8.1,1.5-15.5,4.6-22.3c3-6.8,7.1-12.7,12.1-17.8
		c5.1-5.1,11-9.1,17.7-12.2C41.1,2.3,48.2,0.5,55.7,0V8.2z"/>
</g>
</svg>
