<?xml version="1.0" encoding="utf-8"?>
<!-- Generator: Adobe Illustrator 22.1.0, SVG Export Plug-In . SVG Version: 6.00 Build 0)  -->
<svg version="1.1" id="Layer_1" xmlns="http://www.w3.org/2000/svg" xmlns:xlink="http://www.w3.org/1999/xlink" x="0px" y="0px"
	 viewBox="0 0 512 512" style="enable-background:new 0 0 512 512;" xml:space="preserve">
<style type="text/css">
	.st0{fill:#111111;}
	.st1{fill:#FFFFFF;}
</style>
<path class="st0" d="M502,386h-61v-40h61c5.5,0,10-4.5,10-10c0-61.4-23.9-119.2-67.4-162.6c-35.4-35.4-80.4-57.9-129.1-65
	c-3.2-24-21.2-42.4-42.8-42.4h-33.3c-21.6,0-39.6,18.4-42.8,42.4c-48.7,7.1-93.7,29.5-129.1,65C23.9,216.8,0,274.6,0,336
	c0,5.5,4.5,10,10,10h61v40H10c-5.5,0-10,4.5-10,10v30c0,11,9,20,20,20h472c11,0,20-9,20-20v-30C512,390.5,507.5,386,502,386z
	 M239.3,86h33.3c10.1,0,18.8,8.4,22,20h-77.3C220.5,94.4,229.2,86,239.3,86z M20.2,326c0.3-6.8,1-13.4,1.9-20h71.5
	c5.5,0,10-4.5,10-10c0-5.5-4.5-10-10-10H26c22.5-91.7,105.4-160,204-160h52c112.4,0,204.5,88.8,209.8,200H20.2z M421,346v40H91v-40
	H421z M492,426H20v-20h472V426C492,426,492,426,492,426z"/>
<path class="st1" d="M133.6,306c-5.5,0-10-4.5-10-10s4.5-10,10-10h0c5.5,0,10,4.5,10,10S139.2,306,133.6,306z"/>
</svg>
